<?xml version="1.0" encoding="UTF-8"?><svg id="Layer_2" xmlns="http://www.w3.org/2000/svg" viewBox="0 0 141.37 125.9"><defs><style>.cls-1{fill:#015a2f;}</style></defs><g id="Layer_1-2"><path class="cls-1" d="M133.45,15.43l-60.56,60.56c-.78,.78-1.8,1.17-2.83,1.17-.95,0-1.89-.33-2.65-1.01l-24.1-21.35c-1.65-1.46-1.81-3.99-.34-5.65,1.47-1.65,3.99-1.81,5.65-.34l21.28,18.85L127.99,9.58c-15.31-13.35-38.64-12.74-53.21,1.83l-4.09,4.09-4.09-4.09C51.38-3.8,26.63-3.8,11.41,11.41c-15.21,15.22-15.21,39.97,0,55.19l4.07,4.07-.02,.02,55.21,55.21,59.3-59.3c13.94-13.94,15.1-35.89,3.49-51.17Z"/></g></svg>